<svg width="56" height="82" fill="none" xmlns="http://www.w3.org/2000/svg"><path d="M40.944 35.356h-25.82a2.28 2.28 0 01-2.283-2.282 2.28 2.28 0 012.282-2.282h25.834a2.28 2.28 0 012.282 2.282 2.309 2.309 0 01-2.295 2.282zm0 10.966h-25.82a2.28 2.28 0 01-2.283-2.283 2.28 2.28 0 012.282-2.282h25.834a2.28 2.28 0 012.282 2.282 2.29 2.29 0 01-2.295 2.283zm0 10.978h-25.82a2.28 2.28 0 01-2.283-2.282 2.28 2.28 0 012.282-2.282h25.834a2.28 2.28 0 012.282 2.282 2.309 2.309 0 01-2.295 2.282zm-12.91 10.966h-12.91a2.28 2.28 0 01-2.283-2.282 2.27 2.27 0 012.282-2.282h12.91a2.28 2.28 0 012.283 2.282 2.28 2.28 0 01-2.282 2.282z" fill="#194F82"/><path d="M49.06 13.384h-6.428v-2.997a2.28 2.28 0 00-2.282-2.283h-4.943a7.416 7.416 0 00-2.147-5.901c-2.836-2.903-7.428-2.971-10.507 0-1.62 1.593-2.336 3.781-2.16 5.901H15.65a2.28 2.28 0 00-2.282 2.283v2.998H6.967a6.841 6.841 0 00-6.833 6.833v54.949A6.841 6.841 0 006.967 82h42.066a6.841 6.841 0 006.833-6.833V20.23a6.795 6.795 0 00-6.806-6.847zm-31.087-.715h5.834c1.985-.068 2.917-2.458 1.877-3.579a2.835 2.835 0 01.337-3.66c1.094-1.08 2.971-1.093 4.065 0a2.85 2.85 0 01.324 3.647c-.959 1.499-.135 3.484 1.878 3.578h5.833v6.78H17.973v-6.766zm33.37 62.498a2.28 2.28 0 01-2.283 2.282H7.007a2.28 2.28 0 01-2.282-2.282V20.23a2.28 2.28 0 012.282-2.282h6.429v3.781a2.28 2.28 0 002.282 2.282h24.686a2.28 2.28 0 002.282-2.282V17.95h6.428a2.28 2.28 0 012.282 2.282v54.936h-.054z" fill="#194F82"/></svg>